<mxfile host="app.diagrams.net" modified="2024-07-10T21:17:01.660Z" agent="Mozilla/5.0 (Windows NT 10.0; Win64; x64) AppleWebKit/537.36 (KHTML, like Gecko) Chrome/126.0.0.0 Safari/537.36" etag="T8KKGI56QaLFRvX-WjYA" version="24.6.4" type="device">
  <diagram name="Page-1" id="bU2Xf8PQ_sOGb5f3-KPX">
    <mxGraphModel dx="637" dy="597" grid="1" gridSize="10" guides="1" tooltips="1" connect="1" arrows="1" fold="1" page="1" pageScale="1" pageWidth="850" pageHeight="1100" math="0" shadow="0">
      <root>
        <mxCell id="0" />
        <mxCell id="1" parent="0" />
        <mxCell id="cnHovPVh4oMCa_qqTdAi-1" value="" style="childLayout=tableLayout;recursiveResize=0;shadow=0;fillColor=none;" vertex="1" parent="1">
          <mxGeometry x="230" y="460" width="480" height="270" as="geometry" />
        </mxCell>
        <mxCell id="cnHovPVh4oMCa_qqTdAi-69" style="shape=tableRow;horizontal=0;startSize=0;swimlaneHead=0;swimlaneBody=0;top=0;left=0;bottom=0;right=0;dropTarget=0;collapsible=0;recursiveResize=0;expand=0;fontStyle=0;fillColor=none;strokeColor=inherit;" vertex="1" parent="cnHovPVh4oMCa_qqTdAi-1">
          <mxGeometry width="480" height="30" as="geometry" />
        </mxCell>
        <mxCell id="cnHovPVh4oMCa_qqTdAi-70" value="" style="connectable=0;recursiveResize=0;strokeColor=inherit;fillColor=none;align=center;whiteSpace=wrap;html=1;" vertex="1" parent="cnHovPVh4oMCa_qqTdAi-69">
          <mxGeometry width="70" height="30" as="geometry">
            <mxRectangle width="70" height="30" as="alternateBounds" />
          </mxGeometry>
        </mxCell>
        <mxCell id="cnHovPVh4oMCa_qqTdAi-71" value="default&lt;div&gt;constructor&lt;/div&gt;" style="connectable=0;recursiveResize=0;strokeColor=#6c8ebf;fillColor=#dae8fc;align=center;whiteSpace=wrap;html=1;" vertex="1" parent="cnHovPVh4oMCa_qqTdAi-69">
          <mxGeometry x="70" width="70" height="30" as="geometry">
            <mxRectangle width="70" height="30" as="alternateBounds" />
          </mxGeometry>
        </mxCell>
        <mxCell id="cnHovPVh4oMCa_qqTdAi-72" value="destructor" style="connectable=0;recursiveResize=0;strokeColor=#6c8ebf;fillColor=#dae8fc;align=center;whiteSpace=wrap;html=1;" vertex="1" parent="cnHovPVh4oMCa_qqTdAi-69">
          <mxGeometry x="140" width="60" height="30" as="geometry">
            <mxRectangle width="60" height="30" as="alternateBounds" />
          </mxGeometry>
        </mxCell>
        <mxCell id="cnHovPVh4oMCa_qqTdAi-73" value="copy constructor" style="connectable=0;recursiveResize=0;strokeColor=#6c8ebf;fillColor=#dae8fc;align=center;whiteSpace=wrap;html=1;" vertex="1" parent="cnHovPVh4oMCa_qqTdAi-69">
          <mxGeometry x="200" width="70" height="30" as="geometry">
            <mxRectangle width="70" height="30" as="alternateBounds" />
          </mxGeometry>
        </mxCell>
        <mxCell id="cnHovPVh4oMCa_qqTdAi-74" value="copy&lt;div&gt;assignment&lt;/div&gt;" style="connectable=0;recursiveResize=0;strokeColor=#6c8ebf;fillColor=#dae8fc;align=center;whiteSpace=wrap;html=1;" vertex="1" parent="cnHovPVh4oMCa_qqTdAi-69">
          <mxGeometry x="270" width="70" height="30" as="geometry">
            <mxRectangle width="70" height="30" as="alternateBounds" />
          </mxGeometry>
        </mxCell>
        <mxCell id="cnHovPVh4oMCa_qqTdAi-75" value="move&lt;div&gt;constructor&lt;/div&gt;" style="connectable=0;recursiveResize=0;strokeColor=#6c8ebf;fillColor=#dae8fc;align=center;whiteSpace=wrap;html=1;" vertex="1" parent="cnHovPVh4oMCa_qqTdAi-69">
          <mxGeometry x="340" width="70" height="30" as="geometry">
            <mxRectangle width="70" height="30" as="alternateBounds" />
          </mxGeometry>
        </mxCell>
        <mxCell id="cnHovPVh4oMCa_qqTdAi-76" value="move&lt;div&gt;assignment&lt;/div&gt;" style="connectable=0;recursiveResize=0;strokeColor=#6c8ebf;fillColor=#dae8fc;align=center;whiteSpace=wrap;html=1;" vertex="1" parent="cnHovPVh4oMCa_qqTdAi-69">
          <mxGeometry x="410" width="70" height="30" as="geometry">
            <mxRectangle width="70" height="30" as="alternateBounds" />
          </mxGeometry>
        </mxCell>
        <mxCell id="cnHovPVh4oMCa_qqTdAi-61" style="shape=tableRow;horizontal=0;startSize=0;swimlaneHead=0;swimlaneBody=0;top=0;left=0;bottom=0;right=0;dropTarget=0;collapsible=0;recursiveResize=0;expand=0;fontStyle=0;fillColor=none;strokeColor=inherit;" vertex="1" parent="cnHovPVh4oMCa_qqTdAi-1">
          <mxGeometry y="30" width="480" height="30" as="geometry" />
        </mxCell>
        <mxCell id="cnHovPVh4oMCa_qqTdAi-62" value="Nothing" style="connectable=0;recursiveResize=0;strokeColor=#6c8ebf;fillColor=#dae8fc;align=center;whiteSpace=wrap;html=1;" vertex="1" parent="cnHovPVh4oMCa_qqTdAi-61">
          <mxGeometry width="70" height="30" as="geometry">
            <mxRectangle width="70" height="30" as="alternateBounds" />
          </mxGeometry>
        </mxCell>
        <mxCell id="cnHovPVh4oMCa_qqTdAi-63" value="defaulted" style="connectable=0;recursiveResize=0;strokeColor=inherit;fillColor=none;align=center;whiteSpace=wrap;html=1;" vertex="1" parent="cnHovPVh4oMCa_qqTdAi-61">
          <mxGeometry x="70" width="70" height="30" as="geometry">
            <mxRectangle width="70" height="30" as="alternateBounds" />
          </mxGeometry>
        </mxCell>
        <mxCell id="cnHovPVh4oMCa_qqTdAi-64" value="defaulted" style="connectable=0;recursiveResize=0;strokeColor=inherit;fillColor=none;align=center;whiteSpace=wrap;html=1;" vertex="1" parent="cnHovPVh4oMCa_qqTdAi-61">
          <mxGeometry x="140" width="60" height="30" as="geometry">
            <mxRectangle width="60" height="30" as="alternateBounds" />
          </mxGeometry>
        </mxCell>
        <mxCell id="cnHovPVh4oMCa_qqTdAi-65" value="defaulted" style="connectable=0;recursiveResize=0;strokeColor=inherit;fillColor=none;align=center;whiteSpace=wrap;html=1;" vertex="1" parent="cnHovPVh4oMCa_qqTdAi-61">
          <mxGeometry x="200" width="70" height="30" as="geometry">
            <mxRectangle width="70" height="30" as="alternateBounds" />
          </mxGeometry>
        </mxCell>
        <mxCell id="cnHovPVh4oMCa_qqTdAi-66" value="defaulted" style="connectable=0;recursiveResize=0;strokeColor=inherit;fillColor=none;align=center;whiteSpace=wrap;html=1;" vertex="1" parent="cnHovPVh4oMCa_qqTdAi-61">
          <mxGeometry x="270" width="70" height="30" as="geometry">
            <mxRectangle width="70" height="30" as="alternateBounds" />
          </mxGeometry>
        </mxCell>
        <mxCell id="cnHovPVh4oMCa_qqTdAi-67" value="defaulted" style="connectable=0;recursiveResize=0;strokeColor=inherit;fillColor=none;align=center;whiteSpace=wrap;html=1;" vertex="1" parent="cnHovPVh4oMCa_qqTdAi-61">
          <mxGeometry x="340" width="70" height="30" as="geometry">
            <mxRectangle width="70" height="30" as="alternateBounds" />
          </mxGeometry>
        </mxCell>
        <mxCell id="cnHovPVh4oMCa_qqTdAi-68" value="defaulted" style="connectable=0;recursiveResize=0;strokeColor=inherit;fillColor=none;align=center;whiteSpace=wrap;html=1;" vertex="1" parent="cnHovPVh4oMCa_qqTdAi-61">
          <mxGeometry x="410" width="70" height="30" as="geometry">
            <mxRectangle width="70" height="30" as="alternateBounds" />
          </mxGeometry>
        </mxCell>
        <mxCell id="cnHovPVh4oMCa_qqTdAi-53" style="shape=tableRow;horizontal=0;startSize=0;swimlaneHead=0;swimlaneBody=0;top=0;left=0;bottom=0;right=0;dropTarget=0;collapsible=0;recursiveResize=0;expand=0;fontStyle=0;fillColor=none;strokeColor=inherit;" vertex="1" parent="cnHovPVh4oMCa_qqTdAi-1">
          <mxGeometry y="60" width="480" height="30" as="geometry" />
        </mxCell>
        <mxCell id="cnHovPVh4oMCa_qqTdAi-54" value="Any&lt;div&gt;constructor&lt;/div&gt;" style="connectable=0;recursiveResize=0;strokeColor=#6c8ebf;fillColor=#dae8fc;align=center;whiteSpace=wrap;html=1;" vertex="1" parent="cnHovPVh4oMCa_qqTdAi-53">
          <mxGeometry width="70" height="30" as="geometry">
            <mxRectangle width="70" height="30" as="alternateBounds" />
          </mxGeometry>
        </mxCell>
        <mxCell id="cnHovPVh4oMCa_qqTdAi-55" value="not&lt;div&gt;declared&lt;/div&gt;" style="connectable=0;recursiveResize=0;strokeColor=#006EAF;fillColor=#1ba1e2;align=center;whiteSpace=wrap;html=1;fontColor=#ffffff;" vertex="1" parent="cnHovPVh4oMCa_qqTdAi-53">
          <mxGeometry x="70" width="70" height="30" as="geometry">
            <mxRectangle width="70" height="30" as="alternateBounds" />
          </mxGeometry>
        </mxCell>
        <mxCell id="cnHovPVh4oMCa_qqTdAi-56" value="defaulted" style="connectable=0;recursiveResize=0;strokeColor=inherit;fillColor=none;align=center;whiteSpace=wrap;html=1;" vertex="1" parent="cnHovPVh4oMCa_qqTdAi-53">
          <mxGeometry x="140" width="60" height="30" as="geometry">
            <mxRectangle width="60" height="30" as="alternateBounds" />
          </mxGeometry>
        </mxCell>
        <mxCell id="cnHovPVh4oMCa_qqTdAi-57" value="defaulted" style="connectable=0;recursiveResize=0;strokeColor=inherit;fillColor=none;align=center;whiteSpace=wrap;html=1;" vertex="1" parent="cnHovPVh4oMCa_qqTdAi-53">
          <mxGeometry x="200" width="70" height="30" as="geometry">
            <mxRectangle width="70" height="30" as="alternateBounds" />
          </mxGeometry>
        </mxCell>
        <mxCell id="cnHovPVh4oMCa_qqTdAi-58" value="defaulted" style="connectable=0;recursiveResize=0;strokeColor=inherit;fillColor=none;align=center;whiteSpace=wrap;html=1;" vertex="1" parent="cnHovPVh4oMCa_qqTdAi-53">
          <mxGeometry x="270" width="70" height="30" as="geometry">
            <mxRectangle width="70" height="30" as="alternateBounds" />
          </mxGeometry>
        </mxCell>
        <mxCell id="cnHovPVh4oMCa_qqTdAi-59" value="defaulted" style="connectable=0;recursiveResize=0;strokeColor=inherit;fillColor=none;align=center;whiteSpace=wrap;html=1;" vertex="1" parent="cnHovPVh4oMCa_qqTdAi-53">
          <mxGeometry x="340" width="70" height="30" as="geometry">
            <mxRectangle width="70" height="30" as="alternateBounds" />
          </mxGeometry>
        </mxCell>
        <mxCell id="cnHovPVh4oMCa_qqTdAi-60" value="defaulted" style="connectable=0;recursiveResize=0;strokeColor=inherit;fillColor=none;align=center;whiteSpace=wrap;html=1;" vertex="1" parent="cnHovPVh4oMCa_qqTdAi-53">
          <mxGeometry x="410" width="70" height="30" as="geometry">
            <mxRectangle width="70" height="30" as="alternateBounds" />
          </mxGeometry>
        </mxCell>
        <mxCell id="cnHovPVh4oMCa_qqTdAi-45" style="shape=tableRow;horizontal=0;startSize=0;swimlaneHead=0;swimlaneBody=0;top=0;left=0;bottom=0;right=0;dropTarget=0;collapsible=0;recursiveResize=0;expand=0;fontStyle=0;fillColor=none;strokeColor=inherit;" vertex="1" parent="cnHovPVh4oMCa_qqTdAi-1">
          <mxGeometry y="90" width="480" height="30" as="geometry" />
        </mxCell>
        <mxCell id="cnHovPVh4oMCa_qqTdAi-46" value="default&lt;div&gt;constructor&lt;/div&gt;" style="connectable=0;recursiveResize=0;strokeColor=#6c8ebf;fillColor=#dae8fc;align=center;whiteSpace=wrap;html=1;" vertex="1" parent="cnHovPVh4oMCa_qqTdAi-45">
          <mxGeometry width="70" height="30" as="geometry">
            <mxRectangle width="70" height="30" as="alternateBounds" />
          </mxGeometry>
        </mxCell>
        <mxCell id="cnHovPVh4oMCa_qqTdAi-47" value="user&lt;div&gt;declared&lt;/div&gt;" style="connectable=0;recursiveResize=0;strokeColor=#6c8ebf;fillColor=#dae8fc;align=center;whiteSpace=wrap;html=1;" vertex="1" parent="cnHovPVh4oMCa_qqTdAi-45">
          <mxGeometry x="70" width="70" height="30" as="geometry">
            <mxRectangle width="70" height="30" as="alternateBounds" />
          </mxGeometry>
        </mxCell>
        <mxCell id="cnHovPVh4oMCa_qqTdAi-48" value="defaulted" style="connectable=0;recursiveResize=0;strokeColor=inherit;fillColor=none;align=center;whiteSpace=wrap;html=1;" vertex="1" parent="cnHovPVh4oMCa_qqTdAi-45">
          <mxGeometry x="140" width="60" height="30" as="geometry">
            <mxRectangle width="60" height="30" as="alternateBounds" />
          </mxGeometry>
        </mxCell>
        <mxCell id="cnHovPVh4oMCa_qqTdAi-49" value="defaulted" style="connectable=0;recursiveResize=0;strokeColor=inherit;fillColor=none;align=center;whiteSpace=wrap;html=1;" vertex="1" parent="cnHovPVh4oMCa_qqTdAi-45">
          <mxGeometry x="200" width="70" height="30" as="geometry">
            <mxRectangle width="70" height="30" as="alternateBounds" />
          </mxGeometry>
        </mxCell>
        <mxCell id="cnHovPVh4oMCa_qqTdAi-50" value="defaulted" style="connectable=0;recursiveResize=0;strokeColor=inherit;fillColor=none;align=center;whiteSpace=wrap;html=1;" vertex="1" parent="cnHovPVh4oMCa_qqTdAi-45">
          <mxGeometry x="270" width="70" height="30" as="geometry">
            <mxRectangle width="70" height="30" as="alternateBounds" />
          </mxGeometry>
        </mxCell>
        <mxCell id="cnHovPVh4oMCa_qqTdAi-51" value="defaulted" style="connectable=0;recursiveResize=0;strokeColor=inherit;fillColor=none;align=center;whiteSpace=wrap;html=1;" vertex="1" parent="cnHovPVh4oMCa_qqTdAi-45">
          <mxGeometry x="340" width="70" height="30" as="geometry">
            <mxRectangle width="70" height="30" as="alternateBounds" />
          </mxGeometry>
        </mxCell>
        <mxCell id="cnHovPVh4oMCa_qqTdAi-52" value="defaulted" style="connectable=0;recursiveResize=0;strokeColor=inherit;fillColor=none;align=center;whiteSpace=wrap;html=1;" vertex="1" parent="cnHovPVh4oMCa_qqTdAi-45">
          <mxGeometry x="410" width="70" height="30" as="geometry">
            <mxRectangle width="70" height="30" as="alternateBounds" />
          </mxGeometry>
        </mxCell>
        <mxCell id="cnHovPVh4oMCa_qqTdAi-37" style="shape=tableRow;horizontal=0;startSize=0;swimlaneHead=0;swimlaneBody=0;top=0;left=0;bottom=0;right=0;dropTarget=0;collapsible=0;recursiveResize=0;expand=0;fontStyle=0;fillColor=none;strokeColor=inherit;" vertex="1" parent="cnHovPVh4oMCa_qqTdAi-1">
          <mxGeometry y="120" width="480" height="30" as="geometry" />
        </mxCell>
        <mxCell id="cnHovPVh4oMCa_qqTdAi-38" value="destructor" style="connectable=0;recursiveResize=0;strokeColor=#6c8ebf;fillColor=#dae8fc;align=center;whiteSpace=wrap;html=1;" vertex="1" parent="cnHovPVh4oMCa_qqTdAi-37">
          <mxGeometry width="70" height="30" as="geometry">
            <mxRectangle width="70" height="30" as="alternateBounds" />
          </mxGeometry>
        </mxCell>
        <mxCell id="cnHovPVh4oMCa_qqTdAi-39" value="defaulted" style="connectable=0;recursiveResize=0;strokeColor=inherit;fillColor=none;align=center;whiteSpace=wrap;html=1;" vertex="1" parent="cnHovPVh4oMCa_qqTdAi-37">
          <mxGeometry x="70" width="70" height="30" as="geometry">
            <mxRectangle width="70" height="30" as="alternateBounds" />
          </mxGeometry>
        </mxCell>
        <mxCell id="cnHovPVh4oMCa_qqTdAi-40" value="user&lt;div&gt;declared&lt;/div&gt;" style="connectable=0;recursiveResize=0;strokeColor=#6c8ebf;fillColor=#dae8fc;align=center;whiteSpace=wrap;html=1;" vertex="1" parent="cnHovPVh4oMCa_qqTdAi-37">
          <mxGeometry x="140" width="60" height="30" as="geometry">
            <mxRectangle width="60" height="30" as="alternateBounds" />
          </mxGeometry>
        </mxCell>
        <mxCell id="cnHovPVh4oMCa_qqTdAi-41" value="defaulted" style="connectable=0;recursiveResize=0;strokeColor=inherit;fillColor=none;align=center;whiteSpace=wrap;html=1;" vertex="1" parent="cnHovPVh4oMCa_qqTdAi-37">
          <mxGeometry x="200" width="70" height="30" as="geometry">
            <mxRectangle width="70" height="30" as="alternateBounds" />
          </mxGeometry>
        </mxCell>
        <mxCell id="cnHovPVh4oMCa_qqTdAi-42" value="defaulted" style="connectable=0;recursiveResize=0;strokeColor=inherit;fillColor=none;align=center;whiteSpace=wrap;html=1;" vertex="1" parent="cnHovPVh4oMCa_qqTdAi-37">
          <mxGeometry x="270" width="70" height="30" as="geometry">
            <mxRectangle width="70" height="30" as="alternateBounds" />
          </mxGeometry>
        </mxCell>
        <mxCell id="cnHovPVh4oMCa_qqTdAi-43" value="not&lt;div&gt;declared&lt;/div&gt;" style="connectable=0;recursiveResize=0;strokeColor=#006EAF;fillColor=#1ba1e2;align=center;whiteSpace=wrap;html=1;fontColor=#ffffff;" vertex="1" parent="cnHovPVh4oMCa_qqTdAi-37">
          <mxGeometry x="340" width="70" height="30" as="geometry">
            <mxRectangle width="70" height="30" as="alternateBounds" />
          </mxGeometry>
        </mxCell>
        <mxCell id="cnHovPVh4oMCa_qqTdAi-44" value="not&lt;div&gt;declared&lt;/div&gt;" style="connectable=0;recursiveResize=0;strokeColor=#006EAF;fillColor=#1ba1e2;align=center;whiteSpace=wrap;html=1;fontColor=#ffffff;" vertex="1" parent="cnHovPVh4oMCa_qqTdAi-37">
          <mxGeometry x="410" width="70" height="30" as="geometry">
            <mxRectangle width="70" height="30" as="alternateBounds" />
          </mxGeometry>
        </mxCell>
        <mxCell id="cnHovPVh4oMCa_qqTdAi-29" style="shape=tableRow;horizontal=0;startSize=0;swimlaneHead=0;swimlaneBody=0;top=0;left=0;bottom=0;right=0;dropTarget=0;collapsible=0;recursiveResize=0;expand=0;fontStyle=0;fillColor=none;strokeColor=inherit;" vertex="1" parent="cnHovPVh4oMCa_qqTdAi-1">
          <mxGeometry y="150" width="480" height="30" as="geometry" />
        </mxCell>
        <mxCell id="cnHovPVh4oMCa_qqTdAi-30" value="copy constructor" style="connectable=0;recursiveResize=0;strokeColor=#6c8ebf;fillColor=#dae8fc;align=center;whiteSpace=wrap;html=1;" vertex="1" parent="cnHovPVh4oMCa_qqTdAi-29">
          <mxGeometry width="70" height="30" as="geometry">
            <mxRectangle width="70" height="30" as="alternateBounds" />
          </mxGeometry>
        </mxCell>
        <mxCell id="cnHovPVh4oMCa_qqTdAi-31" value="not&lt;div&gt;declared&lt;/div&gt;" style="connectable=0;recursiveResize=0;strokeColor=#006EAF;fillColor=#1ba1e2;align=center;whiteSpace=wrap;html=1;fontColor=#ffffff;" vertex="1" parent="cnHovPVh4oMCa_qqTdAi-29">
          <mxGeometry x="70" width="70" height="30" as="geometry">
            <mxRectangle width="70" height="30" as="alternateBounds" />
          </mxGeometry>
        </mxCell>
        <mxCell id="cnHovPVh4oMCa_qqTdAi-32" value="defaulted" style="connectable=0;recursiveResize=0;strokeColor=inherit;fillColor=none;align=center;whiteSpace=wrap;html=1;" vertex="1" parent="cnHovPVh4oMCa_qqTdAi-29">
          <mxGeometry x="140" width="60" height="30" as="geometry">
            <mxRectangle width="60" height="30" as="alternateBounds" />
          </mxGeometry>
        </mxCell>
        <mxCell id="cnHovPVh4oMCa_qqTdAi-33" value="user&lt;div&gt;declared&lt;/div&gt;" style="connectable=0;recursiveResize=0;strokeColor=#6c8ebf;fillColor=#dae8fc;align=center;whiteSpace=wrap;html=1;" vertex="1" parent="cnHovPVh4oMCa_qqTdAi-29">
          <mxGeometry x="200" width="70" height="30" as="geometry">
            <mxRectangle width="70" height="30" as="alternateBounds" />
          </mxGeometry>
        </mxCell>
        <mxCell id="cnHovPVh4oMCa_qqTdAi-34" value="defaulted" style="connectable=0;recursiveResize=0;strokeColor=inherit;fillColor=none;align=center;whiteSpace=wrap;html=1;" vertex="1" parent="cnHovPVh4oMCa_qqTdAi-29">
          <mxGeometry x="270" width="70" height="30" as="geometry">
            <mxRectangle width="70" height="30" as="alternateBounds" />
          </mxGeometry>
        </mxCell>
        <mxCell id="cnHovPVh4oMCa_qqTdAi-35" value="not&lt;div&gt;declared&lt;/div&gt;" style="connectable=0;recursiveResize=0;strokeColor=#006EAF;fillColor=#1ba1e2;align=center;whiteSpace=wrap;html=1;fontColor=#ffffff;" vertex="1" parent="cnHovPVh4oMCa_qqTdAi-29">
          <mxGeometry x="340" width="70" height="30" as="geometry">
            <mxRectangle width="70" height="30" as="alternateBounds" />
          </mxGeometry>
        </mxCell>
        <mxCell id="cnHovPVh4oMCa_qqTdAi-36" value="not&lt;div&gt;declared&lt;/div&gt;" style="connectable=0;recursiveResize=0;strokeColor=#006EAF;fillColor=#1ba1e2;align=center;whiteSpace=wrap;html=1;fontColor=#ffffff;" vertex="1" parent="cnHovPVh4oMCa_qqTdAi-29">
          <mxGeometry x="410" width="70" height="30" as="geometry">
            <mxRectangle width="70" height="30" as="alternateBounds" />
          </mxGeometry>
        </mxCell>
        <mxCell id="cnHovPVh4oMCa_qqTdAi-2" value="" style="shape=tableRow;horizontal=0;startSize=0;swimlaneHead=0;swimlaneBody=0;top=0;left=0;bottom=0;right=0;dropTarget=0;collapsible=0;recursiveResize=0;expand=0;fontStyle=0;fillColor=none;strokeColor=inherit;" vertex="1" parent="cnHovPVh4oMCa_qqTdAi-1">
          <mxGeometry y="180" width="480" height="30" as="geometry" />
        </mxCell>
        <mxCell id="cnHovPVh4oMCa_qqTdAi-26" value="copy&lt;div&gt;assignment&lt;/div&gt;" style="connectable=0;recursiveResize=0;strokeColor=#6c8ebf;fillColor=#dae8fc;align=center;whiteSpace=wrap;html=1;" vertex="1" parent="cnHovPVh4oMCa_qqTdAi-2">
          <mxGeometry width="70" height="30" as="geometry">
            <mxRectangle width="70" height="30" as="alternateBounds" />
          </mxGeometry>
        </mxCell>
        <mxCell id="cnHovPVh4oMCa_qqTdAi-23" value="defaulted" style="connectable=0;recursiveResize=0;strokeColor=inherit;fillColor=none;align=center;whiteSpace=wrap;html=1;" vertex="1" parent="cnHovPVh4oMCa_qqTdAi-2">
          <mxGeometry x="70" width="70" height="30" as="geometry">
            <mxRectangle width="70" height="30" as="alternateBounds" />
          </mxGeometry>
        </mxCell>
        <mxCell id="cnHovPVh4oMCa_qqTdAi-20" value="defaulted" style="connectable=0;recursiveResize=0;strokeColor=inherit;fillColor=none;align=center;whiteSpace=wrap;html=1;" vertex="1" parent="cnHovPVh4oMCa_qqTdAi-2">
          <mxGeometry x="140" width="60" height="30" as="geometry">
            <mxRectangle width="60" height="30" as="alternateBounds" />
          </mxGeometry>
        </mxCell>
        <mxCell id="cnHovPVh4oMCa_qqTdAi-17" value="defaulted" style="connectable=0;recursiveResize=0;strokeColor=inherit;fillColor=none;align=center;whiteSpace=wrap;html=1;" vertex="1" parent="cnHovPVh4oMCa_qqTdAi-2">
          <mxGeometry x="200" width="70" height="30" as="geometry">
            <mxRectangle width="70" height="30" as="alternateBounds" />
          </mxGeometry>
        </mxCell>
        <mxCell id="cnHovPVh4oMCa_qqTdAi-14" value="user&lt;div&gt;declared&lt;/div&gt;" style="connectable=0;recursiveResize=0;strokeColor=#6c8ebf;fillColor=#dae8fc;align=center;whiteSpace=wrap;html=1;" vertex="1" parent="cnHovPVh4oMCa_qqTdAi-2">
          <mxGeometry x="270" width="70" height="30" as="geometry">
            <mxRectangle width="70" height="30" as="alternateBounds" />
          </mxGeometry>
        </mxCell>
        <mxCell id="cnHovPVh4oMCa_qqTdAi-3" value="not&lt;div&gt;declared&lt;/div&gt;" style="connectable=0;recursiveResize=0;strokeColor=#006EAF;fillColor=#1ba1e2;align=center;whiteSpace=wrap;html=1;fontColor=#ffffff;" vertex="1" parent="cnHovPVh4oMCa_qqTdAi-2">
          <mxGeometry x="340" width="70" height="30" as="geometry">
            <mxRectangle width="70" height="30" as="alternateBounds" />
          </mxGeometry>
        </mxCell>
        <mxCell id="cnHovPVh4oMCa_qqTdAi-4" value="not&lt;div&gt;declared&lt;/div&gt;" style="connectable=0;recursiveResize=0;strokeColor=#006EAF;fillColor=#1ba1e2;align=center;whiteSpace=wrap;html=1;fontColor=#ffffff;" vertex="1" parent="cnHovPVh4oMCa_qqTdAi-2">
          <mxGeometry x="410" width="70" height="30" as="geometry">
            <mxRectangle width="70" height="30" as="alternateBounds" />
          </mxGeometry>
        </mxCell>
        <mxCell id="cnHovPVh4oMCa_qqTdAi-6" style="shape=tableRow;horizontal=0;startSize=0;swimlaneHead=0;swimlaneBody=0;top=0;left=0;bottom=0;right=0;dropTarget=0;collapsible=0;recursiveResize=0;expand=0;fontStyle=0;fillColor=none;strokeColor=inherit;" vertex="1" parent="cnHovPVh4oMCa_qqTdAi-1">
          <mxGeometry y="210" width="480" height="30" as="geometry" />
        </mxCell>
        <mxCell id="cnHovPVh4oMCa_qqTdAi-27" value="move&lt;div&gt;constructor&lt;/div&gt;" style="connectable=0;recursiveResize=0;strokeColor=#6c8ebf;fillColor=#dae8fc;align=center;whiteSpace=wrap;html=1;" vertex="1" parent="cnHovPVh4oMCa_qqTdAi-6">
          <mxGeometry width="70" height="30" as="geometry">
            <mxRectangle width="70" height="30" as="alternateBounds" />
          </mxGeometry>
        </mxCell>
        <mxCell id="cnHovPVh4oMCa_qqTdAi-24" value="not&lt;div&gt;ceclared&lt;/div&gt;" style="connectable=0;recursiveResize=0;strokeColor=#006EAF;fillColor=#1ba1e2;align=center;whiteSpace=wrap;html=1;fontColor=#ffffff;" vertex="1" parent="cnHovPVh4oMCa_qqTdAi-6">
          <mxGeometry x="70" width="70" height="30" as="geometry">
            <mxRectangle width="70" height="30" as="alternateBounds" />
          </mxGeometry>
        </mxCell>
        <mxCell id="cnHovPVh4oMCa_qqTdAi-21" value="defaulted" style="connectable=0;recursiveResize=0;strokeColor=inherit;fillColor=none;align=center;whiteSpace=wrap;html=1;" vertex="1" parent="cnHovPVh4oMCa_qqTdAi-6">
          <mxGeometry x="140" width="60" height="30" as="geometry">
            <mxRectangle width="60" height="30" as="alternateBounds" />
          </mxGeometry>
        </mxCell>
        <mxCell id="cnHovPVh4oMCa_qqTdAi-18" value="deleted" style="connectable=0;recursiveResize=0;strokeColor=#23445d;fillColor=#bac8d3;align=center;whiteSpace=wrap;html=1;" vertex="1" parent="cnHovPVh4oMCa_qqTdAi-6">
          <mxGeometry x="200" width="70" height="30" as="geometry">
            <mxRectangle width="70" height="30" as="alternateBounds" />
          </mxGeometry>
        </mxCell>
        <mxCell id="cnHovPVh4oMCa_qqTdAi-15" value="deleted" style="connectable=0;recursiveResize=0;strokeColor=#23445d;fillColor=#bac8d3;align=center;whiteSpace=wrap;html=1;" vertex="1" parent="cnHovPVh4oMCa_qqTdAi-6">
          <mxGeometry x="270" width="70" height="30" as="geometry">
            <mxRectangle width="70" height="30" as="alternateBounds" />
          </mxGeometry>
        </mxCell>
        <mxCell id="cnHovPVh4oMCa_qqTdAi-7" value="user&lt;div&gt;declared&lt;/div&gt;" style="connectable=0;recursiveResize=0;strokeColor=#6c8ebf;fillColor=#dae8fc;align=center;whiteSpace=wrap;html=1;" vertex="1" parent="cnHovPVh4oMCa_qqTdAi-6">
          <mxGeometry x="340" width="70" height="30" as="geometry">
            <mxRectangle width="70" height="30" as="alternateBounds" />
          </mxGeometry>
        </mxCell>
        <mxCell id="cnHovPVh4oMCa_qqTdAi-8" value="not&lt;div&gt;declared&lt;/div&gt;" style="connectable=0;recursiveResize=0;strokeColor=#006EAF;fillColor=#1ba1e2;align=center;whiteSpace=wrap;html=1;fontColor=#ffffff;" vertex="1" parent="cnHovPVh4oMCa_qqTdAi-6">
          <mxGeometry x="410" width="70" height="30" as="geometry">
            <mxRectangle width="70" height="30" as="alternateBounds" />
          </mxGeometry>
        </mxCell>
        <mxCell id="cnHovPVh4oMCa_qqTdAi-10" style="shape=tableRow;horizontal=0;startSize=0;swimlaneHead=0;swimlaneBody=0;top=0;left=0;bottom=0;right=0;dropTarget=0;collapsible=0;recursiveResize=0;expand=0;fontStyle=0;fillColor=none;strokeColor=inherit;" vertex="1" parent="cnHovPVh4oMCa_qqTdAi-1">
          <mxGeometry y="240" width="480" height="30" as="geometry" />
        </mxCell>
        <mxCell id="cnHovPVh4oMCa_qqTdAi-28" value="move&lt;div&gt;assignment&lt;/div&gt;" style="connectable=0;recursiveResize=0;strokeColor=#6c8ebf;fillColor=#dae8fc;align=center;whiteSpace=wrap;html=1;" vertex="1" parent="cnHovPVh4oMCa_qqTdAi-10">
          <mxGeometry width="70" height="30" as="geometry">
            <mxRectangle width="70" height="30" as="alternateBounds" />
          </mxGeometry>
        </mxCell>
        <mxCell id="cnHovPVh4oMCa_qqTdAi-25" value="defaulted" style="connectable=0;recursiveResize=0;strokeColor=inherit;fillColor=none;align=center;whiteSpace=wrap;html=1;" vertex="1" parent="cnHovPVh4oMCa_qqTdAi-10">
          <mxGeometry x="70" width="70" height="30" as="geometry">
            <mxRectangle width="70" height="30" as="alternateBounds" />
          </mxGeometry>
        </mxCell>
        <mxCell id="cnHovPVh4oMCa_qqTdAi-22" value="defaulted" style="connectable=0;recursiveResize=0;strokeColor=inherit;fillColor=none;align=center;whiteSpace=wrap;html=1;" vertex="1" parent="cnHovPVh4oMCa_qqTdAi-10">
          <mxGeometry x="140" width="60" height="30" as="geometry">
            <mxRectangle width="60" height="30" as="alternateBounds" />
          </mxGeometry>
        </mxCell>
        <mxCell id="cnHovPVh4oMCa_qqTdAi-19" value="deleted" style="connectable=0;recursiveResize=0;strokeColor=#23445d;fillColor=#bac8d3;align=center;whiteSpace=wrap;html=1;" vertex="1" parent="cnHovPVh4oMCa_qqTdAi-10">
          <mxGeometry x="200" width="70" height="30" as="geometry">
            <mxRectangle width="70" height="30" as="alternateBounds" />
          </mxGeometry>
        </mxCell>
        <mxCell id="cnHovPVh4oMCa_qqTdAi-16" value="deleted" style="connectable=0;recursiveResize=0;strokeColor=#23445d;fillColor=#bac8d3;align=center;whiteSpace=wrap;html=1;" vertex="1" parent="cnHovPVh4oMCa_qqTdAi-10">
          <mxGeometry x="270" width="70" height="30" as="geometry">
            <mxRectangle width="70" height="30" as="alternateBounds" />
          </mxGeometry>
        </mxCell>
        <mxCell id="cnHovPVh4oMCa_qqTdAi-11" value="not&lt;div&gt;declared&lt;/div&gt;" style="connectable=0;recursiveResize=0;strokeColor=inherit;fillColor=none;align=center;whiteSpace=wrap;html=1;" vertex="1" parent="cnHovPVh4oMCa_qqTdAi-10">
          <mxGeometry x="340" width="70" height="30" as="geometry">
            <mxRectangle width="70" height="30" as="alternateBounds" />
          </mxGeometry>
        </mxCell>
        <mxCell id="cnHovPVh4oMCa_qqTdAi-12" value="user&lt;div&gt;declared&lt;/div&gt;" style="connectable=0;recursiveResize=0;strokeColor=#6c8ebf;fillColor=#dae8fc;align=center;whiteSpace=wrap;html=1;" vertex="1" parent="cnHovPVh4oMCa_qqTdAi-10">
          <mxGeometry x="410" width="70" height="30" as="geometry">
            <mxRectangle width="70" height="30" as="alternateBounds" />
          </mxGeometry>
        </mxCell>
        <mxCell id="cnHovPVh4oMCa_qqTdAi-78" value="compiler implicitly declares" style="text;html=1;align=center;verticalAlign=middle;whiteSpace=wrap;rounded=0;fontSize=16;" vertex="1" parent="1">
          <mxGeometry x="325" y="420" width="290" height="30" as="geometry" />
        </mxCell>
        <mxCell id="cnHovPVh4oMCa_qqTdAi-79" value="user declares" style="text;html=1;align=center;verticalAlign=middle;whiteSpace=wrap;rounded=0;fontSize=16;rotation=-90;" vertex="1" parent="1">
          <mxGeometry x="60" y="580" width="290" height="30" as="geometry" />
        </mxCell>
      </root>
    </mxGraphModel>
  </diagram>
</mxfile>
